PathFileType	4	(X/Y/Z)	/mnt/data/output.trc
DataRate	CameraRate	NumFrames	NumMarkers	Units	OrigDataRate	OrigDataStartFrame	OrigNumFrames
100	100	9	17	mm	100	992	3966
Frame#	Time	nosex	nosey	nosez	lefteyex	lefteyey	lefteyez	righteyex	righteyey	righteyez	leftearx	lefteary	leftearz	rightearx	righteary	rightearz	leftshoulderx	leftshouldery	leftshoulderz	rightshoulderx	rightshouldery	rightshoulderz	leftelbowx	leftelbowy	leftelbowz	rightelbowx	rightelbowy	rightelbowz	leftwristx	leftwristy	leftwristz	rightwristx	rightwristy	rightwristz	lefthipx	lefthipy	lefthipz	righthipx	righthipy	righthipz	leftkneex	leftkneey	leftkneez	rightkneex	rightkneey	rightkneez	leftanklex	leftankley	leftanklez	rightanklex	rightankley	rightanklez
		1	1	1	2	2	2	3	3	3	4	4	4	5	5	5	6	6	6	7	7	7	8	8	8	9	9	9	10	10	10	11	11	11	12	12	12	13	13	13	14	14	14	15	15	15	16	16	16	17	17	17
992	9.92	-76.09631212900673	-570.0416135665959	3271.6414468670387	-59.208548874144284	-599.2843314708848	3289.082625072747	-98.68484905896376	-598.3698791756377	3289.3819640084403	7.952323371374197	-586.7302776785192	3386.7719734464995	-153.78009309940458	-590.1672662985218	3393.3283341392403	85.568845942356	-404.0096162425184	3444.5244874618743	-231.7821511955117	-411.8946553958388	3447.0894320502434	135.46519224894547	-124.03233251312224	3430.0687165509435	-282.5503982390949	-149.73527290885806	3466.1336123186743	135.62828016325608	84.6417012462543	3388.80233108721	-299.40067046272907	70.27786553218019	3402.146750412682	23.878035946114075	22.00625353114538	3461.659478943964	-186.56238954142975	13.121828975990908	3462.975092317364	9.506514998932923	427.9041875529597	3535.6044221315988	-157.84767046285754	429.4597636412752	3531.3835857230297	15.152549408447396	790.9756837957324	3547.052617547348	-142.72402265138825	795.3581584897245	3557.0485943683693
993	9.93	-76.20726549905977	-570.0595058896072	3271.59040635471	-57.05015370845822	-599.4783636952428	3290.6814266781867	-98.79607160615484	-598.3877930916839	3289.3297273052003	7.857336812544697	-586.749117061985	3386.7264396940604	-151.99263854485775	-590.3552050200344	3395.023871800008	85.48901541855402	-402.7342421241249	3444.57324455025	-231.87445433212972	-411.9109998361957	3447.021861857211	134.85858542269878	-123.74987444809432	3427.064568551277	-282.6400802067656	-149.75211372800888	3466.061274523826	135.7828459829277	86.09110656985125	3388.683125155951	-299.4904797073032	70.25046287400778	3402.040078544393	23.78101640515637	21.983692345334795	3461.6184736501086	-182.39059801887825	13.007696911822684	3464.75305147617	9.412565782215866	427.8808753354562	3535.561216656682	-157.9379536315816	429.4386657697309	3531.325159023078	15.063558753827229	790.9512265154788	3547.0101426211886	-142.81139547665046	795.335266142404	3556.9941342892203
994	9.94	-75.93142636125275	-570.0404136007878	3271.636717699209	-56.77065366061191	-599.4600034222651	3290.726900470997	-98.54069150030224	-599.777403528454	3289.343277270897	6.188813631259427	-586.5848718421784	3385.0913358819184	-153.56782066760462	-588.9290589293316	3393.334194270328	85.71167084030579	-404.02429055445054	3444.522235830991	-231.49866679092108	-413.0630098360447	3447.011369980112	135.0958525041389	-123.73881610354712	3427.0904268921395	-282.80533727650544	-149.80212627359887	3467.198625587826	134.48816775766988	84.30655783301272	3391.694946563929	-299.2699785905622	70.2607432407486	3402.1595352791373	24.01565121783545	21.9951294607932	3461.658839778723	-186.4255518409115	13.110230333072131	3462.9793087482344	9.642769461103136	427.89744885513295	3535.597592155069	-160.0193938409373	429.3971008642112	3531.310129907078	15.283598768581244	790.9719357963779	3547.0398886936505	-142.59506395882107	795.3543975207775	3557.0416725666296
995	9.95	-75.27582950242801	-570.1324847053905	3272.262974119958	-58.38021610237183	-599.3779220581857	3289.7009822664386	-100.13740771494554	-599.696531589416	3288.312389535172	6.734721805877132	-586.6498444576448	3385.7351430757285	-153.02662334412318	-588.9940182302589	3393.985379031536	86.26535149878492	-404.0878617949334	3445.171510043842	-231.34317538714475	-412.869986124762	3445.177811761683	135.65379085122504	-123.79935838332244	3427.736325604309	-284.3234606975597	-151.2406572296956	3466.7098573074427	135.0326107156657	84.239558363658	3392.3064915025952	-298.7221650363862	70.18473542010378	3403.063362264228	24.563161675710266	21.93636509004693	3462.319088075056	-185.88021618268647	13.05206779536434	3463.648703261487	9.794053842125804	428.14324466501535	3533.349233532408	-159.4889364378197	429.3424644519012	3531.9659468640984	15.791135187129589	790.919049058795	3547.656276845486	-142.0914620896887	795.3045419337766	3557.6699012640597
996	9.96	-75.33172684357183	-570.1333613635079	3272.2896837992835	-58.4349862538216	-599.3790635701258	3289.7277187400264	-97.94706498177352	-599.8730132305657	3289.997409554833	6.695113095255248	-586.6508129074433	3385.757785431462	-153.06702909711584	-588.9948384853668	3394.00695632857	86.22707584845111	-404.088927909441	3445.1968116306607	-231.5272244734328	-411.71818802488383	3445.2852523901674	135.61657270303297	-123.80035182950432	3427.7638988735066	-282.3818847065712	-151.27498325087976	3467.956532316738	134.96215283328652	85.84920887563895	3391.906169183941	-298.7655890910172	70.18643899484593	3403.0491145450287	24.728104558146352	21.628181903635134	3465.1057839104037	-185.9197743320024	13.05207638781038	3463.67407993094	9.973063547535524	427.8442562092753	3536.054680008608	-159.52613134700613	429.34351862329737	3531.991192959687	15.556401981814885	791.2054405815643	3545.119601050568	-142.90974154078293	793.7689247863175	3557.7030420097176
997	9.97	-75.26878649287737	-570.029735417739	3272.3716438512843	-52.6122572638138	-597.5913307382185	3288.781263348686	-97.88394344696285	-599.7671880118313	3290.079995255253	6.72308738246917	-586.5617013706737	3385.8441249243333	-153.02930542119444	-588.9032974108225	3394.085583466052	86.24983031508951	-404.01013093106303	3445.274946318804	-231.4811911868565	-411.6350215927277	3445.352191659858	135.64124745332657	-123.73812152436815	3427.8374312378887	-284.30852858099576	-151.17275501791434	3466.792813969452	134.98172345066106	85.904715469044	3391.945402033679	-298.7110955597971	70.22089358436088	3403.088598084301	24.760248647195077	21.68199700800744	3465.1715197519507	-185.87201800449577	13.1088179329779	3463.732527347185	10.006883158105827	427.8715269310616	3536.1150929106	-159.47843842562528	429.3726824799738	3532.046257713892	15.791265107787051	790.9226058365709	3547.7448626506607	-142.86460895810126	793.77193702482	3557.7618296035453
998	9.98	-75.34759860300234	-570.0330291913797	3272.4542366860487	-52.668378033499216	-597.5963258174608	3288.8604365609185	-100.20945585765028	-599.5944955977028	3288.502636389775	6.66750954815018	-586.5660929448665	3385.9217432086543	-153.08582018766208	-588.9067651177747	3394.155293661652	86.19311015475286	-404.0165449107951	3445.354363147153	-231.14405597195588	-411.8967278920816	3447.9184647557167	135.58525373703577	-123.74854765745243	3427.9207685427987	-282.57370142723704	-150.00768339032928	3468.448108291857	134.9306747692029	85.89665909585581	3392.071405437277	-298.7624801389535	70.20317518594898	3403.1937992726976	24.503104353381232	21.979134840557958	3462.4860133957195	-185.9258449929448	13.09938013918849	3463.7962825582026	9.955901875170316	427.8562547201769	3536.1896557407904	-159.52910475082516	429.3584007197732	3532.113221226574	15.74414080437586	790.9038479375298	3547.8221262952093	-142.9104964591275	793.7538078288873	3557.831961566291
999	9.99	-75.32063892668114	-570.0466948584311	3272.650299686308	-52.64432699453182	-597.6073442176966	3289.0569599146274	-100.18528364853432	-599.6083494765783	3288.697297615497	6.634614134526989	-587.8523594234118	3386.0704714037715	-153.06640785369683	-588.9177599567917	3394.3430067498766	86.20456095120565	-404.03279316413455	3445.5637933634457	-231.51915359719823	-411.6538187005127	3445.600767443064	135.60252902530578	-123.7696160255224	3428.133065278481	-282.5541963610454	-150.02598348510242	3468.631619910038	134.92084351651584	85.88514983537812	3392.114734524076	-298.7356872704185	70.17403049436435	3403.4379031180893	24.514098536948364	21.954770619755507	3462.696477926333	-185.9092416412115	13.077186600583191	3463.9891225444176	9.97043225335096	427.8256567128423	3536.393579651887	-159.51113896923508	429.3292708711743	3532.3052749602275	15.76248920600546	790.8679551526541	3548.0212350276506	-142.8899824315225	793.718923862513	3558.020492803836
1000	10.0	-75.24655196969503	-570.0474521805113	3272.694719174359	-52.58505491740737	-597.62880246325	3289.103646998892	-100.11330620623534	-599.6101758307387	3288.743113403343	6.742769938590793	-586.599461979293	3386.179041567718	-153.01299129110146	-588.9381447693041	3394.39303931699	86.26611023011095	-404.0493379840747	3445.624580252227	-231.46664501526803	-411.667633366994	3445.6478857047573	135.66519372729988	-123.77776965591056	3428.194493994549	-282.50250532601547	-150.03163111700647	3468.676537104862	134.99640897429387	85.88333365670663	3392.260133054032	-298.68335895036955	70.16732064348362	3403.511736913822	24.57597431522133	21.952306232403654	3462.753866758105	-185.8542238317596	13.076218394994322	3464.037438692539	10.027201316514471	427.8360515092114	3536.451827168992	-159.45883034785535	429.34090126971927	3532.355946276921	15.816480822393592	790.88938628325	3548.077799434088	-142.84099665753573	793.7417164204436	3558.072203271813
